<svg width="20" height="19" viewBox="0 0 20 19" fill="none" xmlns="http://www.w3.org/2000/svg">
<path d="M1.20565 18.9958C1.29215 18.9958 1.37864 18.9856 1.46407 18.9651L5.73549 17.9421C5.92343 17.897 6.09536 17.8039 6.23204 17.673L19.3592 5.09605C19.7628 4.70932 19.9849 4.19572 19.9849 3.64939C19.9849 3.10305 19.7628 2.58946 19.3592 2.20273L17.6656 0.580096C16.8583 -0.193365 15.453 -0.193365 14.6457 0.580096L1.51853 13.157C1.38185 13.288 1.28467 13.4527 1.23769 13.6317L0.169834 17.7241C0.0779989 18.073 0.185852 18.4413 0.45068 18.6961C0.652504 18.8905 0.925875 18.9958 1.20565 18.9958V18.9958ZM16.1556 2.02676L17.8492 3.64939L16.1556 5.27202L14.462 3.64939L16.1556 2.02676ZM3.23778 14.4032L12.952 5.09605L14.6457 6.71868L4.93033 16.0258L2.67288 16.566L3.23778 14.4032Z" fill="#75524B"/>
</svg>